<svg xmlns="http://www.w3.org/2000/svg" x="0px" y="0px" width="50" height="50" viewBox="0,0,256,256"
style="fill:#000000;">
<g fill="#ffffff" fill-rule="nonzero" stroke="none" stroke-width="1" stroke-linecap="butt" stroke-linejoin="miter" stroke-miterlimit="10" stroke-dasharray="" stroke-dashoffset="0" font-family="none" font-weight="none" font-size="none" text-anchor="none" style="mix-blend-mode: normal"><g transform="scale(5.12,5.12)"><path d="M37,4c-2.404,0 -4.66328,0.93672 -6.36328,2.63672l-5,5c-1.445,1.445 -2.33822,3.29397 -2.57422,5.29297c-0.041,0.352 -0.0625,0.71031 -0.0625,1.07031c0,1.368 0.31367,2.68677 0.88867,3.88477l1.52539,-1.52734c-0.267,-0.748 -0.41406,-1.54042 -0.41406,-2.35742c0,-1.87 0.72878,-3.62622 2.05078,-4.94922l5,-5c1.323,-1.322 3.07922,-2.05078 4.94922,-2.05078c1.87,0 3.62622,0.72878 4.94922,2.05078c1.323,1.322 2.05078,3.07922 2.05078,4.94922c0,1.87 -0.72878,3.62622 -2.05078,4.94922l-5,5c-1.323,1.322 -3.07922,2.05078 -4.94922,2.05078c-0.817,0 -1.60942,-0.14706 -2.35742,-0.41406l-1.52734,1.52539c1.198,0.575 2.51677,0.88867 3.88477,0.88867c2.404,0 4.66328,-0.93672 6.36328,-2.63672l5,-5c1.7,-1.7 2.63672,-3.95928 2.63672,-6.36328c0,-2.404 -0.93672,-4.66328 -2.63672,-6.36328c-1.7,-1.7 -3.95928,-2.63672 -6.36328,-2.63672zM30.98047,17.99023c-0.2598,0.00774 -0.50638,0.11632 -0.6875,0.30273l-12,12c-0.26124,0.25082 -0.36648,0.62327 -0.27512,0.97371c0.09136,0.35044 0.36503,0.62411 0.71547,0.71547c0.35044,0.09136 0.72289,-0.01388 0.97371,-0.27512l12,-12c0.29576,-0.28749 0.38469,-0.72707 0.22393,-1.10691c-0.16075,-0.37985 -0.53821,-0.62204 -0.9505,-0.60988zM18,23c-2.404,0 -4.66328,0.93672 -6.36328,2.63672l-5,5c-1.564,1.563 -2.48214,3.60011 -2.61914,5.78711c-0.012,0.191 -0.01758,0.38317 -0.01758,0.57617c0,2.404 0.93672,4.66328 2.63672,6.36328c1.7,1.7 3.95928,2.63672 6.36328,2.63672c2.404,0 4.66328,-0.93672 6.36328,-2.63672l5,-5c1.7,-1.7 2.63672,-3.95928 2.63672,-6.36328c0,-1.368 -0.31367,-2.68677 -0.88867,-3.88477l-1.52539,1.52734c0.267,0.748 0.41406,1.54042 0.41406,2.35742c0,1.87 -0.72878,3.62622 -2.05078,4.94922l-5,5c-1.323,1.322 -3.07922,2.05078 -4.94922,2.05078c-1.87,0 -3.62622,-0.72878 -4.94922,-2.05078c-1.323,-1.322 -2.05078,-3.07922 -2.05078,-4.94922c0,-1.87 0.72878,-3.62622 2.05078,-4.94922l5,-5c1.323,-1.322 3.07922,-2.05078 4.94922,-2.05078c0.817,0 1.60942,0.14706 2.35742,0.41406l1.52734,-1.52539c-1.198,-0.575 -2.51677,-0.88867 -3.88477,-0.88867z"></path></g></g>
</svg>
