<svg xmlns="http://www.w3.org/2000/svg" xmlns:xlink="http://www.w3.org/1999/xlink" viewBox="0,0,256,256" width="250px" height="250px"><g fill="#f4f4f4" fill-rule="nonzero" stroke="none" stroke-width="1" stroke-linecap="butt" stroke-linejoin="miter" stroke-miterlimit="10" stroke-dasharray="" stroke-dashoffset="0" font-family="none" font-weight="none" font-size="none" text-anchor="none" style="mix-blend-mode: normal"><g transform="scale(5.12,5.12)"><path d="M25,1c-10.44531,0 -19,8.55469 -19,19c0,1.05469 0.10938,2.03516 0.28125,3h-2.28125c-0.03125,0 -0.0625,0 -0.09375,0c-0.51562,0.04688 -0.91016,0.48047 -0.90625,1v24c0,0.55078 0.44922,1 1,1h42c0.55078,0 1,-0.44922 1,-1v-24c0,-0.55078 -0.44922,-1 -1,-1h-2.28125c0.17188,-0.96484 0.28125,-1.94531 0.28125,-3c0,-10.44531 -8.55469,-19 -19,-19zM25,3c9.35547,0 17,7.64453 17,17c0,1.03125 -0.12109,2.01563 -0.3125,3h-10.34375c0.42969,-0.93359 0.65625,-1.95703 0.65625,-3c0,-3.84375 -3.15625,-7 -7,-7c-3.84375,0 -7,3.15625 -7,7c0,1.07813 0.25391,2.08594 0.6875,3h-10.375c-0.19141,-0.98437 -0.3125,-1.96875 -0.3125,-3c0,-9.35547 7.64453,-17 17,-17zM25,15c2.75391,0 5,2.24609 5,5c0,1.14063 -0.37109,2.14844 -1.03125,3h-7.96875c-0.61328,-0.87891 -1,-1.92578 -1,-3c0,-2.75391 2.24609,-5 5,-5zM25,18c-1.10547,0 -2,0.89453 -2,2c0,1.10547 0.89453,2 2,2c1.10547,0 2,-0.89453 2,-2c0,-1.10547 -0.89453,-2 -2,-2zM5,25h2.0625c0.29297,0.15625 0.64453,0.15625 0.9375,0h21.375c0.07422,0.00781 0.14453,0.00781 0.21875,0h12.40625c0.29297,0.15625 0.64453,0.15625 0.9375,0h2.0625v22h-40zM18.8125,29c-0.55078,0.05078 -0.95703,0.54297 -0.90625,1.09375c0.05078,0.55078 0.54297,0.95703 1.09375,0.90625h12c0.35938,0.00391 0.69531,-0.18359 0.87891,-0.49609c0.17969,-0.3125 0.17969,-0.69531 0,-1.00781c-0.18359,-0.3125 -0.51953,-0.5 -0.87891,-0.49609h-12c-0.03125,0 -0.0625,0 -0.09375,0c-0.03125,0 -0.0625,0 -0.09375,0z"></path></g></g></svg>