<svg xmlns="http://www.w3.org/2000/svg" x="0px" y="0px" width="50" height="50" viewBox="0,0,256,256"
style="fill:#000000;">
<g fill="#e6e6e6" fill-rule="nonzero" stroke="none" stroke-width="1" stroke-linecap="butt" stroke-linejoin="miter" stroke-miterlimit="10" stroke-dasharray="" stroke-dashoffset="0" font-family="none" font-weight="none" font-size="none" text-anchor="none" style="mix-blend-mode: normal"><g transform="scale(5.12,5.12)"><path d="M25,1.91992c-12.73489,0 -23.08008,10.34519 -23.08008,23.08008c0,12.73489 10.34519,23.08008 23.08008,23.08008c12.73489,0 23.08008,-10.34519 23.08008,-23.08008c0,-12.73489 -10.34519,-23.08008 -23.08008,-23.08008zM24,4.03711v9.93359c-2.56749,-0.06059 -5.00856,-0.34768 -7.25977,-0.81836c0.39639,-1.20084 0.84687,-2.31678 1.34766,-3.31836c1.65293,-3.30587 3.7494,-5.31793 5.91211,-5.79687zM26,4.03711c2.16271,0.47894 4.25917,2.49101 5.91211,5.79688c0.50239,1.00477 0.95427,2.12482 1.35156,3.33008c-2.2484,0.46598 -4.69277,0.74732 -7.26367,0.80664zM19.17188,4.74023c-1.08539,1.13705 -2.05324,2.5596 -2.87305,4.19922c-0.57133,1.14265 -1.07246,2.40326 -1.50977,3.74805c-1.96313,-0.52922 -3.73847,-1.19514 -5.27148,-1.96875c2.57992,-2.79603 5.89349,-4.90074 9.6543,-5.97852zM30.82813,4.74023c3.75716,1.07673 7.06761,3.17873 9.64648,5.9707c-1.51036,0.78773 -3.28374,1.46116 -5.25781,1.99219c-0.43844,-1.35072 -0.94208,-2.61659 -1.51562,-3.76367c-0.81981,-1.63962 -1.78765,-3.06217 -2.87305,-4.19922zM41.7832,12.27344c2.49712,3.28982 4.06639,7.32311 4.27148,11.72656h-9.04102c-0.07299,-3.3573 -0.50209,-6.52716 -1.23633,-9.36719c2.24382,-0.60702 4.26622,-1.40245 6.00586,-2.35937zM8.20508,12.28906c1.75846,0.93369 3.78422,1.71973 6.02148,2.32617c-0.73693,2.84444 -1.1671,6.02067 -1.24023,9.38477h-9.04102c0.20477,-4.39652 1.76956,-8.42392 4.25977,-11.71094zM16.17578,15.08594c2.43234,0.51754 5.06136,0.82575 7.82422,0.88672v8.02734h-9.01367c0.0744,-3.21263 0.49442,-6.23773 1.18945,-8.91406zM33.82813,15.09961c0.69296,2.67299 1.11128,5.69319 1.18555,8.90039h-9.01367v-8.02734c2.76446,-0.05926 5.39648,-0.36039 7.82813,-0.87305zM3.94531,26h9.04102c0.07299,3.3573 0.50209,6.52716 1.23633,9.36719c-2.24382,0.60702 -4.26622,1.40246 -6.00586,2.35937c-2.49712,-3.28982 -4.06639,-7.32311 -4.27148,-11.72656zM14.98633,26h9.01367v8.02734c-2.76446,0.05926 -5.39648,0.36039 -7.82812,0.87305c-0.69296,-2.67299 -1.11128,-5.69319 -1.18555,-8.90039zM26,26h9.01367c-0.0744,3.21263 -0.49441,6.23773 -1.18945,8.91406c-2.43234,-0.51754 -5.06136,-0.82575 -7.82422,-0.88672zM37.01367,26h9.04102c-0.20477,4.39652 -1.76956,8.42392 -4.25977,11.71094c-1.75846,-0.93369 -3.78422,-1.71973 -6.02148,-2.32617c0.73693,-2.84444 1.1671,-6.02067 1.24023,-9.38477zM24,36.0293v9.93359c-2.16271,-0.47894 -4.25917,-2.49101 -5.91211,-5.79687c-0.50239,-1.00477 -0.95427,-2.12482 -1.35156,-3.33008c2.2484,-0.46598 4.69277,-0.74732 7.26367,-0.80664zM26,36.0293c2.56749,0.06059 5.00856,0.34768 7.25977,0.81836c-0.39639,1.20084 -0.84687,2.31678 -1.34766,3.31836c-1.65293,3.30587 -3.74939,5.31793 -5.91211,5.79688zM14.7832,37.29688c0.43844,1.35072 0.94209,2.61659 1.51563,3.76367c0.81981,1.63962 1.78765,3.06217 2.87305,4.19922c-3.75716,-1.07673 -7.06761,-3.17873 -9.64648,-5.9707c1.51036,-0.78773 3.28374,-1.46116 5.25781,-1.99219zM35.21094,37.3125c1.96313,0.52922 3.73848,1.19514 5.27148,1.96875c-2.57992,2.79604 -5.8935,4.90074 -9.6543,5.97852c1.08539,-1.13705 2.05324,-2.5596 2.87305,-4.19922c0.57133,-1.14265 1.07246,-2.40326 1.50977,-3.74805z"></path></g></g>
</svg>

